<!-- Material Design Icons, Apache License 2.0: https://github.com/google/material-design-icons -->
<svg xmlns="http://www.w3.org/2000/svg" viewBox="0 0 24 24" fill="#19708c" aria-hidden="true"><circle cx="7" cy="7" r="2"/><path d="M20 13V4.83A2.83 2.83 0 0 0 17.17 2c-.75 0-1.47.3-2 .83l-1.25 1.25c-.16-.05-.33-.08-.51-.08-.4 0-.77.12-1.08.32l2.76 2.76c.2-.31.32-.68.32-1.08 0-.18-.03-.34-.07-.51l1.25-1.25c.15-.15.36-.24.58-.24.46 0 .83.37.83.83V13h-6.85c-.3-.21-.57-.45-.82-.72l-1.4-1.55a2.3 2.3 0 0 0-.69-.5C7.93 10.08 7.59 10 7.24 10 6 10.01 5 11.01 5 12.25V13H2v6a2 2 0 0 0 2 2c0 .55.45 1 1 1h14c.55 0 1-.45 1-1a2 2 0 0 0 2-2v-6h-2Z"/></svg>
