<!-- Material Design Icons, Apache License 2.0: https://github.com/google/material-design-icons -->
<svg xmlns="http://www.w3.org/2000/svg" viewBox="0 0 24 24" fill="#19708c" aria-hidden="true"><circle cx="7" cy="6" r="2"/><path d="M11.15 12c-.31-.22-.59-.46-.82-.72l-1.4-1.55c-.19-.21-.43-.38-.69-.5a2.3 2.3 0 0 0-.96-.23h-.03C6.01 9 5 10.01 5 11.25V12H2v8a2 2 0 0 0 2 2h16a2 2 0 0 0 2-2v-8h-10.85ZM7 20H5v-6h2v6Zm4 0H9v-6h2v6Zm4 0h-2v-6h2v6Zm4 0h-2v-6h2v6Zm-.35-14.14-.07-.07c-.57-.62-.82-1.41-.67-2.2L18 3h-1.89l-.06.43c-.2 1.36.27 2.71 1.3 3.72l.07.06c.57.62.82 1.41.67 2.2l-.11.59h1.91l.06-.43c.21-1.36-.27-2.71-1.3-3.71Zm-4 0-.07-.07c-.57-.62-.82-1.41-.67-2.2L14 3h-1.89l-.06.43c-.2 1.36.27 2.71 1.3 3.72l.07.06c.57.62.82 1.41.67 2.2l-.11.59h1.91l.06-.43c.21-1.36-.27-2.71-1.3-3.71Z"/></svg>
